# xmcd
#
# Track frame offsets: 
#        150
#        26822
#        40145
#        51276
#        62342
#        83279
#        96340
#        113908
#        129900
#        152395
#        168338
#        180982
#        195238
#        211274
#        223919
#        236961
#        250082
#        262877
#
# Disc length: 3745 seconds
#
# Revision: 0
# Processed by: cddbd v1.5.1PL0 Copyright (c) Steve Scherf et al.
# Submitted via: ExactAudioCopy v0.90b4
#
DISCID=e50e9f12
DTITLE=Various Artist - Black Music Explosion [CD1]
DYEAR=2005
DGENRE=Soul
TTITLE0=Crown Heights Affair - Galaxy Of Love
TTITLE1=Jimmy James and The Vagabonds - Suspicious Love
TTITLE2=Jeannie Napoli - Forget That Girl
TTITLE3=Continental Four - What You Gave Up
TTITLE4=The Street People - Never Get Enough Of Your Love
TTITLE5=New York City - I'm Doin' Fine Now
TTITLE6=Demon Fuzz - Message To Mankind
TTITLE7=Larry Saunders - On The Real Side
TTITLE8=Real Thing - You're My Number One
TTITLE9=Freda Payne - Bring The Boys Home
TTITLE10=The Honey Cone - Want Ads
TTITLE11=Chairman Of The Board - Pay To The Piper
TTITLE12=The Flaming Ember - Westbound #9
TTITLE13=The Glass House - Crumbs Off The Table
TTITLE14=The 8th Day - You've Got To Crawl (Before You Walk)
TTITLE15=The Politicians - Love Machine
TTITLE16=100 Proof Aged In Soul - 90 Day Freeze (On Her Love)
TTITLE17=Zingara - I Surrender
EXTD=
EXTT0=
EXTT1=
EXTT2=
EXTT3=
EXTT4=
EXTT5=
EXTT6=
EXTT7=
EXTT8=
EXTT9=
EXTT10=
EXTT11=
EXTT12=
EXTT13=
EXTT14=
EXTT15=
EXTT16=
EXTT17=
PLAYORDER=
